<svg xmlns="http://www.w3.org/2000/svg" viewBox="0 0 1000 480" width="1000" height="480"><rect width="1000" height="480" fill="#fff"/><text x="30" y="88" font-family="Assistant,Arial" font-size="26" font-weight="700" fill="#444">I</text><text x="30" y="228" font-family="Assistant,Arial" font-size="26" font-weight="700" fill="#444">II</text><text x="30" y="368" font-family="Assistant,Arial" font-size="26" font-weight="700" fill="#444">III</text><line x1="351.0" y1="80" x2="729.0" y2="80" stroke="#1d1d1d" stroke-width="3"/><line x1="243.5" y1="220" x2="406.5" y2="220" stroke="#1d1d1d" stroke-width="3"/><line x1="673.5" y1="220" x2="836.5" y2="220" stroke="#1d1d1d" stroke-width="3"/><line x1="540.0" y1="80" x2="540.0" y2="150" stroke="#1d1d1d" stroke-width="3"/><line x1="217.5" y1="150" x2="647.5" y2="150" stroke="#1d1d1d" stroke-width="3"/><line x1="217.5" y1="150" x2="217.5" y2="194" stroke="#1d1d1d" stroke-width="3"/><line x1="647.5" y1="150" x2="647.5" y2="194" stroke="#1d1d1d" stroke-width="3"/><line x1="325.0" y1="220" x2="325.0" y2="290" stroke="#1d1d1d" stroke-width="3"/><line x1="217.5" y1="290" x2="647.5" y2="290" stroke="#1d1d1d" stroke-width="3"/><line x1="217.5" y1="290" x2="217.5" y2="334" stroke="#1d1d1d" stroke-width="3"/><line x1="432.5" y1="290" x2="432.5" y2="334" stroke="#1d1d1d" stroke-width="3"/><line x1="647.5" y1="290" x2="647.5" y2="334" stroke="#1d1d1d" stroke-width="3"/><line x1="755.0" y1="220" x2="755.0" y2="290" stroke="#1d1d1d" stroke-width="3"/><line x1="755.0" y1="290" x2="862.5" y2="290" stroke="#1d1d1d" stroke-width="3"/><line x1="862.5" y1="290" x2="862.5" y2="334" stroke="#1d1d1d" stroke-width="3"/><rect x="299.0" y="54" width="52" height="52" fill="#1d1d1d" stroke="#1d1d1d" stroke-width="3"/><text x="325.0" y="130" font-family="Assistant,Arial" font-size="20" fill="#444" text-anchor="middle">I-1</text><circle cx="755.0" cy="80" r="26" fill="#ffffff" stroke="#1d1d1d" stroke-width="3"/><text x="755.0" y="130" font-family="Assistant,Arial" font-size="20" fill="#444" text-anchor="middle">I-2</text><circle cx="217.5" cy="220" r="26" fill="#ffffff" stroke="#1d1d1d" stroke-width="3"/><text x="217.5" y="270" font-family="Assistant,Arial" font-size="20" fill="#444" text-anchor="middle">II-1</text><rect x="406.5" y="194" width="52" height="52" fill="#ffffff" stroke="#1d1d1d" stroke-width="3"/><text x="432.5" y="270" font-family="Assistant,Arial" font-size="20" fill="#444" text-anchor="middle">II-2</text><rect x="621.5" y="194" width="52" height="52" fill="#1d1d1d" stroke="#1d1d1d" stroke-width="3"/><text x="647.5" y="270" font-family="Assistant,Arial" font-size="20" fill="#444" text-anchor="middle">II-3</text><circle cx="862.5" cy="220" r="26" fill="#ffffff" stroke="#1d1d1d" stroke-width="3"/><text x="862.5" y="270" font-family="Assistant,Arial" font-size="20" fill="#444" text-anchor="middle">II-4</text><rect x="191.5" y="334" width="52" height="52" fill="#1d1d1d" stroke="#1d1d1d" stroke-width="3"/><text x="217.5" y="410" font-family="Assistant,Arial" font-size="20" fill="#444" text-anchor="middle">III-1</text><circle cx="432.5" cy="360" r="26" fill="#1d1d1d" stroke="#1d1d1d" stroke-width="3"/><text x="432.5" y="410" font-family="Assistant,Arial" font-size="20" fill="#444" text-anchor="middle">III-2</text><circle cx="647.5" cy="360" r="26" fill="#ffffff" stroke="#1d1d1d" stroke-width="3"/><text x="647.5" y="410" font-family="Assistant,Arial" font-size="20" fill="#444" text-anchor="middle">III-3</text><rect x="836.5" y="334" width="52" height="52" fill="#ffffff" stroke="#1d1d1d" stroke-width="3"/><text x="862.5" y="410" font-family="Assistant,Arial" font-size="20" fill="#444" text-anchor="middle">III-4</text></svg>